<svg width="325" height="62" viewBox="0 0 325 62" fill="none" xmlns="http://www.w3.org/2000/svg">
    <path d="M54.6514 44.2865C53.0514 44.2865 51.5154 44.0519 50.0434 43.5825C48.5927 43.0919 47.43 42.4412 46.5554 41.6305C46.2354 41.3319 46.0754 40.9585 46.0754 40.5105C46.0754 40.2119 46.1607 39.9559 46.3314 39.7425C46.502 39.5079 46.7047 39.3905 46.9394 39.3905C47.2167 39.3905 47.5154 39.5079 47.8354 39.7425C49.8194 41.2785 52.0807 42.0465 54.6194 42.0465C56.454 42.0465 57.862 41.6945 58.8434 40.9905C59.8247 40.2865 60.3154 39.2839 60.3154 37.9825C60.3154 37.2359 60.0807 36.6385 59.6114 36.1905C59.142 35.7212 58.5234 35.3479 57.7554 35.0705C56.9874 34.7932 55.9527 34.5052 54.6514 34.2065C52.902 33.8012 51.462 33.3745 50.3314 32.9265C49.222 32.4785 48.3154 31.8385 47.6114 31.0065C46.9287 30.1745 46.5874 29.0865 46.5874 27.7425C46.5874 26.4625 46.9287 25.3319 47.6114 24.3505C48.3154 23.3478 49.286 22.5798 50.5234 22.0465C51.782 21.4918 53.2114 21.2145 54.8114 21.2145C56.3047 21.2145 57.6914 21.4492 58.9714 21.9185C60.2727 22.3665 61.3607 23.0172 62.2354 23.8705C62.5767 24.2118 62.7474 24.5852 62.7474 24.9905C62.7474 25.2892 62.662 25.5558 62.4914 25.7905C62.3207 26.0039 62.118 26.1105 61.8834 26.1105C61.6487 26.1105 61.3394 25.9932 60.9554 25.7585C59.91 24.9052 58.9394 24.3079 58.0434 23.9665C57.1474 23.6252 56.07 23.4545 54.8114 23.4545C53.0407 23.4545 51.6647 23.8279 50.6834 24.5745C49.702 25.2999 49.2114 26.3239 49.2114 27.6465C49.2114 28.7772 49.638 29.6305 50.4914 30.2065C51.366 30.7612 52.6994 31.2519 54.4914 31.6785C56.4327 32.1479 57.958 32.5852 59.0674 32.9905C60.1767 33.3745 61.094 33.9612 61.8194 34.7505C62.566 35.5399 62.9394 36.5959 62.9394 37.9185C62.9394 39.1772 62.5874 40.2865 61.8834 41.2465C61.2007 42.2065 60.23 42.9532 58.9714 43.4865C57.7127 44.0199 56.2727 44.2865 54.6514 44.2865ZM69.0894 44.1905C68.7054 44.1905 68.3854 44.0839 68.1294 43.8705C67.8947 43.6359 67.7774 43.3159 67.7774 42.9105V22.5905C67.7774 22.1852 67.8947 21.8759 68.1294 21.6625C68.3854 21.4278 68.7054 21.3105 69.0894 21.3105C69.452 21.3105 69.7507 21.4278 69.9854 21.6625C70.2414 21.8759 70.3694 22.1852 70.3694 22.5905V42.9105C70.3694 43.3159 70.2414 43.6359 69.9854 43.8705C69.7507 44.0839 69.452 44.1905 69.0894 44.1905ZM88.2389 40.4145C88.4735 40.4145 88.6762 40.5105 88.8469 40.7025C89.0175 40.8945 89.1029 41.1399 89.1029 41.4385C89.1029 41.9719 88.7295 42.4625 87.9829 42.9105C87.2149 43.3585 86.4042 43.6999 85.5509 43.9345C84.6975 44.1479 83.8655 44.2545 83.0549 44.2545C80.6442 44.2545 78.7349 43.5399 77.3269 42.1105C75.9402 40.6812 75.2469 38.7079 75.2469 36.1905C75.2469 34.5905 75.5562 33.1825 76.1749 31.9665C76.7935 30.7292 77.6575 29.7692 78.7669 29.0865C79.8975 28.4039 81.1775 28.0625 82.6069 28.0625C84.6335 28.0625 86.2442 28.7239 87.4389 30.0465C88.6335 31.3692 89.2309 33.1612 89.2309 35.4225C89.2309 35.8492 89.1455 36.1585 88.9749 36.3505C88.8042 36.5425 88.5269 36.6385 88.1429 36.6385H77.8389C78.0309 40.3079 79.7695 42.1425 83.0549 42.1425C83.8869 42.1425 84.6015 42.0359 85.1989 41.8225C85.7962 41.5879 86.4362 41.2785 87.1189 40.8945C87.6735 40.5745 88.0469 40.4145 88.2389 40.4145ZM82.6389 30.0785C81.2735 30.0785 80.1749 30.5052 79.3429 31.3585C78.5322 32.2119 78.0522 33.4172 77.9029 34.9745H86.9589C86.9162 33.3959 86.5215 32.1905 85.7749 31.3585C85.0282 30.5052 83.9829 30.0785 82.6389 30.0785ZM106.074 40.4145C106.309 40.4145 106.511 40.5105 106.682 40.7025C106.853 40.8945 106.938 41.1399 106.938 41.4385C106.938 41.9719 106.565 42.4625 105.818 42.9105C105.05 43.3585 104.239 43.6999 103.386 43.9345C102.533 44.1479 101.701 44.2545 100.89 44.2545C98.4792 44.2545 96.5699 43.5399 95.1619 42.1105C93.7752 40.6812 93.0819 38.7079 93.0819 36.1905C93.0819 34.5905 93.3912 33.1825 94.0099 31.9665C94.6285 30.7292 95.4925 29.7692 96.6019 29.0865C97.7325 28.4039 99.0125 28.0625 100.442 28.0625C102.469 28.0625 104.079 28.7239 105.274 30.0465C106.469 31.3692 107.066 33.1612 107.066 35.4225C107.066 35.8492 106.981 36.1585 106.81 36.3505C106.639 36.5425 106.362 36.6385 105.978 36.6385H95.6739C95.8659 40.3079 97.6045 42.1425 100.89 42.1425C101.722 42.1425 102.437 42.0359 103.034 41.8225C103.631 41.5879 104.271 41.2785 104.954 40.8945C105.509 40.5745 105.882 40.4145 106.074 40.4145ZM100.474 30.0785C99.1085 30.0785 98.0099 30.5052 97.1779 31.3585C96.3672 32.2119 95.8872 33.4172 95.7379 34.9745H104.794C104.751 33.3959 104.357 32.1905 103.61 31.3585C102.863 30.5052 101.818 30.0785 100.474 30.0785ZM119.685 28.0625C121.05 28.0625 122.256 28.4039 123.301 29.0865C124.346 29.7692 125.157 30.7292 125.733 31.9665C126.309 33.1825 126.597 34.6012 126.597 36.2225C126.597 37.8439 126.309 39.2625 125.733 40.4785C125.157 41.6732 124.346 42.6012 123.301 43.2625C122.277 43.9239 121.072 44.2545 119.685 44.2545C118.469 44.2545 117.402 43.9879 116.485 43.4545C115.589 42.9212 114.906 42.1639 114.437 41.1825V48.7025C114.437 49.0865 114.32 49.3852 114.085 49.5985C113.872 49.8332 113.562 49.9505 113.157 49.9505C112.752 49.9505 112.432 49.8332 112.197 49.5985C111.962 49.3639 111.845 49.0652 111.845 48.7025V29.4065C111.845 29.0225 111.962 28.7132 112.197 28.4785C112.432 28.2439 112.752 28.1265 113.157 28.1265C113.562 28.1265 113.872 28.2439 114.085 28.4785C114.32 28.7132 114.437 29.0225 114.437 29.4065V31.1345C114.906 30.1532 115.589 29.3958 116.485 28.8625C117.402 28.3292 118.469 28.0625 119.685 28.0625ZM119.173 42.1105C120.688 42.1105 121.861 41.5985 122.693 40.5745C123.525 39.5505 123.941 38.0999 123.941 36.2225C123.941 34.3452 123.525 32.8839 122.693 31.8385C121.861 30.7719 120.688 30.2385 119.173 30.2385C117.658 30.2385 116.485 30.7505 115.653 31.7745C114.842 32.7985 114.437 34.2599 114.437 36.1585C114.437 38.0572 114.842 39.5292 115.653 40.5745C116.485 41.5985 117.658 42.1105 119.173 42.1105ZM150.752 44.3185C148.576 44.3185 146.667 43.8492 145.024 42.9105C143.403 41.9719 142.155 40.6279 141.28 38.8785C140.405 37.1292 139.968 35.0812 139.968 32.7345C139.968 30.3879 140.405 28.3505 141.28 26.6225C142.155 24.8732 143.403 23.5292 145.024 22.5905C146.667 21.6518 148.576 21.1825 150.752 21.1825C152.16 21.1825 153.483 21.3958 154.72 21.8225C155.957 22.2279 157.056 22.8252 158.016 23.6145C158.293 23.8279 158.485 24.0519 158.592 24.2865C158.699 24.5212 158.752 24.8092 158.752 25.1505C158.752 25.6199 158.624 26.0145 158.368 26.3345C158.112 26.6545 157.803 26.8145 157.44 26.8145C157.013 26.8145 156.576 26.6652 156.128 26.3665C155.211 25.6838 154.357 25.2145 153.568 24.9585C152.779 24.6812 151.904 24.5425 150.944 24.5425C148.725 24.5425 147.04 25.2359 145.888 26.6225C144.757 28.0092 144.192 30.0465 144.192 32.7345C144.192 35.4439 144.757 37.4919 145.888 38.8785C147.04 40.2652 148.725 40.9585 150.944 40.9585C151.861 40.9585 152.704 40.8199 153.472 40.5425C154.261 40.2652 155.147 39.7959 156.128 39.1345C156.341 39.0065 156.555 38.8999 156.768 38.8145C156.981 38.7292 157.205 38.6865 157.44 38.6865C157.803 38.6865 158.112 38.8465 158.368 39.1665C158.624 39.4865 158.752 39.8812 158.752 40.3505C158.752 40.6705 158.699 40.9585 158.592 41.2145C158.485 41.4492 158.293 41.6732 158.016 41.8865C157.056 42.6759 155.957 43.2839 154.72 43.7105C153.483 44.1159 152.16 44.3185 150.752 44.3185ZM169.439 27.9985C171.615 27.9985 173.226 28.5425 174.271 29.6305C175.338 30.6972 175.871 32.3292 175.871 34.5265V42.3345C175.871 42.9105 175.7 43.3692 175.359 43.7105C175.018 44.0305 174.548 44.1905 173.951 44.1905C173.396 44.1905 172.938 44.0199 172.575 43.6785C172.234 43.3372 172.063 42.8892 172.063 42.3345V41.6305C171.7 42.4625 171.124 43.1132 170.335 43.5825C169.567 44.0519 168.671 44.2865 167.647 44.2865C166.602 44.2865 165.652 44.0732 164.799 43.6465C163.946 43.2199 163.274 42.6332 162.783 41.8865C162.292 41.1399 162.047 40.3079 162.047 39.3905C162.047 38.2385 162.335 37.3319 162.911 36.6705C163.508 36.0092 164.468 35.5292 165.791 35.2305C167.114 34.9319 168.938 34.7825 171.263 34.7825H172.063V34.0465C172.063 33.0012 171.839 32.2439 171.391 31.7745C170.943 31.2839 170.218 31.0385 169.215 31.0385C168.596 31.0385 167.967 31.1345 167.327 31.3265C166.687 31.4972 165.93 31.7532 165.055 32.0945C164.5 32.3719 164.095 32.5105 163.839 32.5105C163.455 32.5105 163.135 32.3719 162.879 32.0945C162.644 31.8172 162.527 31.4545 162.527 31.0065C162.527 30.6439 162.612 30.3345 162.783 30.0785C162.975 29.8012 163.284 29.5452 163.711 29.3105C164.458 28.9052 165.343 28.5852 166.367 28.3505C167.412 28.1158 168.436 27.9985 169.439 27.9985ZM168.447 41.4065C169.514 41.4065 170.378 41.0545 171.039 40.3505C171.722 39.6252 172.063 38.6972 172.063 37.5665V36.8945H171.487C170.058 36.8945 168.948 36.9585 168.159 37.0865C167.37 37.2145 166.804 37.4385 166.463 37.7585C166.122 38.0785 165.951 38.5159 165.951 39.0705C165.951 39.7532 166.186 40.3185 166.655 40.7665C167.146 41.1932 167.743 41.4065 168.447 41.4065ZM182.88 44.2225C182.304 44.2225 181.824 44.0625 181.44 43.7425C181.077 43.4012 180.896 42.9212 180.896 42.3025V23.1985C180.896 22.5799 181.077 22.1105 181.44 21.7905C181.824 21.4705 182.304 21.3105 182.88 21.3105C183.456 21.3105 183.936 21.4705 184.32 21.7905C184.704 22.1105 184.896 22.5799 184.896 23.1985V42.3025C184.896 42.9212 184.704 43.4012 184.32 43.7425C183.936 44.0625 183.456 44.2225 182.88 44.2225ZM196.925 44.2865C195.368 44.2865 193.992 43.9559 192.797 43.2945C191.624 42.6332 190.717 41.6945 190.077 40.4785C189.437 39.2625 189.117 37.8439 189.117 36.2225C189.117 34.6012 189.448 33.1719 190.109 31.9345C190.792 30.6759 191.741 29.7052 192.957 29.0225C194.173 28.3398 195.57 27.9985 197.149 27.9985C197.981 27.9985 198.813 28.1158 199.645 28.3505C200.498 28.5852 201.245 28.9052 201.885 29.3105C202.568 29.7585 202.909 30.3239 202.909 31.0065C202.909 31.4759 202.792 31.8599 202.557 32.1585C202.344 32.4359 202.056 32.5745 201.693 32.5745C201.458 32.5745 201.213 32.5212 200.957 32.4145C200.701 32.3079 200.445 32.1798 200.189 32.0305C199.72 31.7532 199.272 31.5399 198.845 31.3905C198.418 31.2199 197.928 31.1345 197.373 31.1345C196.05 31.1345 195.026 31.5719 194.301 32.4465C193.597 33.2999 193.245 34.5372 193.245 36.1585C193.245 37.7585 193.597 38.9959 194.301 39.8705C195.026 40.7239 196.05 41.1505 197.373 41.1505C197.906 41.1505 198.376 41.0759 198.781 40.9265C199.208 40.7559 199.677 40.5319 200.189 40.2545C200.509 40.0625 200.786 39.9239 201.021 39.8385C201.256 39.7319 201.49 39.6785 201.725 39.6785C202.066 39.6785 202.354 39.8279 202.589 40.1265C202.824 40.4252 202.941 40.7985 202.941 41.2465C202.941 41.6092 202.856 41.9292 202.685 42.2065C202.536 42.4625 202.28 42.6972 201.917 42.9105C201.256 43.3372 200.488 43.6785 199.613 43.9345C198.738 44.1692 197.842 44.2865 196.925 44.2865ZM218.918 28.0625C219.537 28.0625 220.027 28.2332 220.39 28.5745C220.753 28.9159 220.934 29.3745 220.934 29.9505V42.3665C220.934 42.9212 220.742 43.3692 220.358 43.7105C219.995 44.0519 219.515 44.2225 218.918 44.2225C218.342 44.2225 217.883 44.0625 217.542 43.7425C217.201 43.4225 217.03 42.9852 217.03 42.4305V41.6305C216.539 42.4839 215.878 43.1452 215.046 43.6145C214.214 44.0625 213.275 44.2865 212.23 44.2865C208.39 44.2865 206.47 42.1319 206.47 37.8225V29.9505C206.47 29.3745 206.651 28.9159 207.014 28.5745C207.377 28.2332 207.857 28.0625 208.454 28.0625C209.073 28.0625 209.563 28.2332 209.926 28.5745C210.289 28.9159 210.47 29.3745 210.47 29.9505V37.8545C210.47 38.9639 210.694 39.7852 211.142 40.3185C211.59 40.8519 212.294 41.1185 213.254 41.1185C214.363 41.1185 215.249 40.7559 215.91 40.0305C216.593 39.2839 216.934 38.3025 216.934 37.0865V29.9505C216.934 29.3745 217.115 28.9159 217.478 28.5745C217.841 28.2332 218.321 28.0625 218.918 28.0625ZM228.041 44.2225C227.465 44.2225 226.985 44.0625 226.601 43.7425C226.239 43.4012 226.057 42.9212 226.057 42.3025V23.1985C226.057 22.5799 226.239 22.1105 226.601 21.7905C226.985 21.4705 227.465 21.3105 228.041 21.3105C228.617 21.3105 229.097 21.4705 229.481 21.7905C229.865 22.1105 230.057 22.5799 230.057 23.1985V42.3025C230.057 42.9212 229.865 43.4012 229.481 43.7425C229.097 44.0625 228.617 44.2225 228.041 44.2225ZM241.926 27.9985C244.102 27.9985 245.713 28.5425 246.758 29.6305C247.825 30.6972 248.358 32.3292 248.358 34.5265V42.3345C248.358 42.9105 248.188 43.3692 247.846 43.7105C247.505 44.0305 247.036 44.1905 246.438 44.1905C245.884 44.1905 245.425 44.0199 245.062 43.6785C244.721 43.3372 244.55 42.8892 244.55 42.3345V41.6305C244.188 42.4625 243.612 43.1132 242.822 43.5825C242.054 44.0519 241.158 44.2865 240.134 44.2865C239.089 44.2865 238.14 44.0732 237.286 43.6465C236.433 43.2199 235.761 42.6332 235.27 41.8865C234.78 41.1399 234.534 40.3079 234.534 39.3905C234.534 38.2385 234.822 37.3319 235.398 36.6705C235.996 36.0092 236.956 35.5292 238.278 35.2305C239.601 34.9319 241.425 34.7825 243.75 34.7825H244.55V34.0465C244.55 33.0012 244.326 32.2439 243.878 31.7745C243.43 31.2839 242.705 31.0385 241.702 31.0385C241.084 31.0385 240.454 31.1345 239.814 31.3265C239.174 31.4972 238.417 31.7532 237.542 32.0945C236.988 32.3719 236.582 32.5105 236.326 32.5105C235.942 32.5105 235.622 32.3719 235.366 32.0945C235.132 31.8172 235.014 31.4545 235.014 31.0065C235.014 30.6439 235.1 30.3345 235.27 30.0785C235.462 29.8012 235.772 29.5452 236.198 29.3105C236.945 28.9052 237.83 28.5852 238.854 28.3505C239.9 28.1158 240.924 27.9985 241.926 27.9985ZM240.934 41.4065C242.001 41.4065 242.865 41.0545 243.526 40.3505C244.209 39.6252 244.55 38.6972 244.55 37.5665V36.8945H243.974C242.545 36.8945 241.436 36.9585 240.646 37.0865C239.857 37.2145 239.292 37.4385 238.95 37.7585C238.609 38.0785 238.438 38.5159 238.438 39.0705C238.438 39.7532 238.673 40.3185 239.142 40.7665C239.633 41.1932 240.23 41.4065 240.934 41.4065ZM261.512 41.2465C262.578 41.3105 263.112 41.7905 263.112 42.6865C263.112 43.1985 262.898 43.5932 262.472 43.8705C262.066 44.1265 261.48 44.2332 260.712 44.1905L259.848 44.1265C256.264 43.8705 254.472 41.9505 254.472 38.3665V31.3905H252.872C252.296 31.3905 251.848 31.2625 251.528 31.0065C251.229 30.7505 251.08 30.3772 251.08 29.8865C251.08 29.3958 251.229 29.0225 251.528 28.7665C251.848 28.5105 252.296 28.3825 252.872 28.3825H254.472V25.4385C254.472 24.8625 254.653 24.4038 255.016 24.0625C255.378 23.7212 255.869 23.5505 256.488 23.5505C257.085 23.5505 257.565 23.7212 257.928 24.0625C258.29 24.4038 258.472 24.8625 258.472 25.4385V28.3825H261.192C261.768 28.3825 262.205 28.5105 262.504 28.7665C262.824 29.0225 262.984 29.3958 262.984 29.8865C262.984 30.3772 262.824 30.7505 262.504 31.0065C262.205 31.2625 261.768 31.3905 261.192 31.3905H258.472V38.6545C258.472 40.2332 259.197 41.0759 260.648 41.1825L261.512 41.2465ZM273.292 44.2865C271.692 44.2865 270.284 43.9559 269.068 43.2945C267.873 42.6332 266.945 41.6839 266.284 40.4465C265.623 39.2092 265.292 37.7692 265.292 36.1265C265.292 34.4839 265.623 33.0545 266.284 31.8385C266.945 30.6012 267.873 29.6519 269.068 28.9905C270.284 28.3292 271.692 27.9985 273.292 27.9985C274.892 27.9985 276.289 28.3292 277.484 28.9905C278.7 29.6519 279.628 30.6012 280.268 31.8385C280.929 33.0545 281.26 34.4839 281.26 36.1265C281.26 37.7692 280.929 39.2092 280.268 40.4465C279.628 41.6839 278.7 42.6332 277.484 43.2945C276.289 43.9559 274.892 44.2865 273.292 44.2865ZM273.26 41.1825C274.561 41.1825 275.553 40.7559 276.236 39.9025C276.919 39.0492 277.26 37.7905 277.26 36.1265C277.26 34.4839 276.919 33.2359 276.236 32.3825C275.553 31.5079 274.572 31.0705 273.292 31.0705C272.012 31.0705 271.02 31.5079 270.316 32.3825C269.633 33.2359 269.292 34.4839 269.292 36.1265C269.292 37.7905 269.633 39.0492 270.316 39.9025C270.999 40.7559 271.98 41.1825 273.26 41.1825ZM294.258 28.0625C294.813 28.0198 295.25 28.1372 295.57 28.4145C295.89 28.6919 296.05 29.1079 296.05 29.6625C296.05 30.2385 295.912 30.6652 295.634 30.9425C295.357 31.2199 294.856 31.4012 294.13 31.4865L293.17 31.5825C291.912 31.7105 290.984 32.1372 290.386 32.8625C289.81 33.5879 289.522 34.4945 289.522 35.5825V42.3025C289.522 42.9212 289.33 43.4012 288.946 43.7425C288.562 44.0625 288.082 44.2225 287.506 44.2225C286.93 44.2225 286.45 44.0625 286.066 43.7425C285.704 43.4012 285.522 42.9212 285.522 42.3025V29.9185C285.522 29.3212 285.704 28.8625 286.066 28.5425C286.45 28.2225 286.92 28.0625 287.474 28.0625C288.029 28.0625 288.477 28.2225 288.818 28.5425C289.16 28.8412 289.33 29.2785 289.33 29.8545V31.1345C289.736 30.1959 290.333 29.4705 291.122 28.9585C291.933 28.4465 292.829 28.1585 293.81 28.0945L294.258 28.0625Z" fill="white" />
    <path opacity="0.6" d="M22.0719 24.836C23.3412 24.836 23.9759 25.368 23.9759 26.432C23.9759 27.4773 23.3412 28 22.0719 28H12.9999C12.4399 28 11.9826 27.8227 11.6279 27.468C11.2732 27.1133 11.0959 26.6933 11.0959 26.208C11.0959 25.648 11.2919 25.1627 11.6839 24.752L18.2359 17.416H12.8599C11.5906 17.416 10.9559 16.8933 10.9559 15.848C10.9559 14.784 11.5906 14.252 12.8599 14.252H21.5959C22.1746 14.252 22.6319 14.4293 22.9679 14.784C23.3226 15.1387 23.4999 15.568 23.4999 16.072C23.4999 16.632 23.3039 17.1173 22.9119 17.528L16.3879 24.836H22.0719Z" fill="white" />
    <path opacity="0.4" d="M11.0904 38.6085C12.1784 38.6085 12.7224 39.0645 12.7224 39.9765C12.7224 40.8725 12.1784 41.3205 11.0904 41.3205H3.31441C2.83441 41.3205 2.44241 41.1685 2.13841 40.8645C1.83441 40.5605 1.68241 40.2005 1.68241 39.7845C1.68241 39.3045 1.85041 38.8885 2.18641 38.5365L7.80241 32.2485H3.19441C2.10641 32.2485 1.56241 31.8005 1.56241 30.9045C1.56241 29.9925 2.10641 29.5365 3.19441 29.5365H10.6824C11.1784 29.5365 11.5704 29.6885 11.8584 29.9925C12.1624 30.2965 12.3144 30.6645 12.3144 31.0965C12.3144 31.5765 12.1464 31.9925 11.8104 32.3445L6.21841 38.6085H11.0904Z" fill="white" />
    <path opacity="0.2" d="M19.2745 51.5606C20.1812 51.5606 20.6345 51.9406 20.6345 52.7006C20.6345 53.4472 20.1812 53.8206 19.2745 53.8206H12.7945C12.3945 53.8206 12.0678 53.6939 11.8145 53.4406C11.5612 53.1872 11.4345 52.8872 11.4345 52.5406C11.4345 52.1406 11.5745 51.7939 11.8545 51.5006L16.5345 46.2606H12.6945C11.7878 46.2606 11.3345 45.8872 11.3345 45.1406C11.3345 44.3806 11.7878 44.0006 12.6945 44.0006H18.9345C19.3478 44.0006 19.6745 44.1272 19.9145 44.3806C20.1678 44.6339 20.2945 44.9406 20.2945 45.3006C20.2945 45.7006 20.1545 46.0472 19.8745 46.3406L15.2145 51.5606H19.2745Z" fill="white" />
    <g filter="url(#filter0_d)">
        <path d="M50.0711 56.189C50.5301 56.0068 50.4421 55.3429 49.9597 55.2372C41.3073 53.3415 33.8445 46.4794 31.2491 36.9083C28.6536 27.3372 31.6274 17.645 38.1368 11.6378C38.4997 11.3029 38.2402 10.6855 37.752 10.7601C36.869 10.8951 35.9845 11.0812 35.1018 11.3206C22.4756 14.7445 15.0156 27.7557 18.4395 40.3819C21.8634 53.0081 34.8747 60.4681 47.5009 57.0442C48.3835 56.8049 49.2409 56.5187 50.0711 56.189Z" fill="#FFDD88" />
    </g>
    <path opacity="0.5" d="M275.37 9.68962C275.331 9.33889 275.732 9.11276 276.012 9.32796L278.802 11.4744C278.919 11.5646 279.076 11.5827 279.211 11.5216L282.416 10.0672C282.738 9.92134 283.077 10.2329 282.959 10.5654L281.779 13.8822C281.73 14.0215 281.761 14.1768 281.861 14.286L284.235 16.8853C284.473 17.1459 284.281 17.5645 283.928 17.5549L280.41 17.4583C280.262 17.4542 280.124 17.532 280.051 17.6606L278.312 20.7215C278.138 21.0284 277.681 20.9756 277.581 20.6371L276.585 17.2606C276.543 17.1188 276.427 17.0116 276.282 16.9819L272.834 16.2744C272.488 16.2034 272.397 15.7521 272.688 15.5526L275.591 13.5624C275.713 13.4788 275.779 13.3348 275.763 13.1878L275.37 9.68962Z" fill="white" />
    <path opacity="0.6" d="M317.484 30.2907C317.698 30.0095 318.144 30.1221 318.198 30.4709L318.681 33.5679C318.703 33.714 318.805 33.8357 318.944 33.8842L321.905 34.9136C322.238 35.0295 322.269 35.4889 321.954 35.6483L319.158 37.064C319.026 37.1307 318.941 37.2648 318.938 37.4127L318.874 40.5464C318.867 40.8992 318.44 41.0705 318.191 40.8203L315.98 38.5981C315.876 38.4933 315.722 38.4546 315.581 38.4974L312.581 39.4047C312.243 39.5069 311.948 39.1533 312.109 38.8393L313.539 36.0503C313.607 35.9187 313.596 35.7607 313.512 35.6393L311.722 33.0663C311.52 32.7766 311.765 32.3869 312.114 32.443L315.208 32.9414C315.354 32.965 315.501 32.906 315.59 32.7882L317.484 30.2907Z" fill="white" />
    <g opacity="0.8" filter="url(#filter1_d)">
        <path d="M307.853 4.90344C308.071 4.62554 308.516 4.74504 308.564 5.09456L309.218 9.76216C309.238 9.90859 309.338 10.0318 309.477 10.0825L313.904 11.6987C314.236 11.8197 314.259 12.2795 313.942 12.4341L309.705 14.4978C309.572 14.5625 309.485 14.6953 309.48 14.843L309.311 19.5531C309.298 19.9058 308.868 20.0705 308.623 19.8165L305.351 16.4243C305.249 16.3179 305.096 16.2768 304.954 16.3174L300.422 17.6121C300.082 17.7091 299.793 17.351 299.959 17.0395L302.174 12.8793C302.243 12.7488 302.235 12.5907 302.153 12.468L299.521 8.55812C299.324 8.26534 299.575 7.8794 299.922 7.94088L304.563 8.76193C304.709 8.78768 304.857 8.73103 304.948 8.61461L307.853 4.90344Z" fill="white" />
    </g>
    <defs>
        <filter id="filter0_d" x="13.608" y="6.75394" width="40.7644" height="55.1219" filterUnits="userSpaceOnUse" color-interpolation-filters="sRGB">
            <feFlood flood-opacity="0" result="BackgroundImageFix" />
            <feColorMatrix in="SourceAlpha" type="matrix" values="0 0 0 0 0 0 0 0 0 0 0 0 0 0 0 0 0 0 127 0" />
            <feOffset />
            <feGaussianBlur stdDeviation="2" />
            <feColorMatrix type="matrix" values="0 0 0 0 1 0 0 0 0 0.866667 0 0 0 0 0.533333 0 0 0 0.3 0" />
            <feBlend mode="normal" in2="BackgroundImageFix" result="effect1_dropShadow" />
            <feBlend mode="normal" in="SourceGraphic" in2="effect1_dropShadow" result="shape" />
        </filter>
        <filter id="filter1_d" x="295.452" y="0.749599" width="22.7153" height="23.1899" filterUnits="userSpaceOnUse" color-interpolation-filters="sRGB">
            <feFlood flood-opacity="0" result="BackgroundImageFix" />
            <feColorMatrix in="SourceAlpha" type="matrix" values="0 0 0 0 0 0 0 0 0 0 0 0 0 0 0 0 0 0 127 0" />
            <feOffset />
            <feGaussianBlur stdDeviation="2" />
            <feColorMatrix type="matrix" values="0 0 0 0 1 0 0 0 0 1 0 0 0 0 1 0 0 0 0.35 0" />
            <feBlend mode="normal" in2="BackgroundImageFix" result="effect1_dropShadow" />
            <feBlend mode="normal" in="SourceGraphic" in2="effect1_dropShadow" result="shape" />
        </filter>
    </defs>
</svg>